<svg fill="none" height="29" viewBox="0 0 67 29" width="67" xmlns="http://www.w3.org/2000/svg"><g fill="#333"><path d="m24.622 26h-1.4952l-2.5787-8.4551-1.9514 8.4551h-1.1848l2.1795-9.4517h1.8881l2.3569 7.7188 1.7804-7.7188h1.1848z"/><path d="m35.5133 16.5483-.2471 1.0728h-4.9609l-.6082 2.666h4.9609l-.2471 1.0664h-4.9609l-.8237 3.5737h4.961l-.2471 1.0728h-6.2155l2.1732-9.4517z"/><path d="m48.4321 16.5483-4.5301 9.4517h-1.4509l-.2788-7.8267-3.6621 7.8267h-1.3939l-.3865-9.4517h1.2735l.2535 7.8457 3.6938-7.8457h1.2735l.2534 7.9219 3.7191-7.9219z"/><path d="m51.4416 26.1714c-.6124 0-1.1953-.0635-1.7487-.1904-.5533-.1312-1.0961-.3301-1.6283-.5967l.3042-1.4409h.0887c.4055.3851.9018.6813 1.4889.8886.5913.2032 1.1616.3047 1.7107.3047.8996 0 1.5881-.1777 2.0654-.5332.4816-.3597.7223-.8167.7223-1.3711 0-.292-.0866-.5353-.2597-.73-.169-.1946-.4182-.3385-.7477-.4316-.2745-.0762-.6019-.1481-.982-.2158-.376-.072-.735-.1481-1.0771-.2285-.6632-.1481-1.1764-.4021-1.5396-.7618-.3633-.3597-.5449-.8061-.5449-1.3393 0-.9014.3801-1.6504 1.1404-2.2471.7646-.6009 1.7508-.9013 2.9589-.9013.6589 0 1.2566.0698 1.793.2094.5407.1354 1.0053.2962 1.3939.4824l-.2851 1.3521h-.0887c-.2999-.2751-.7286-.512-1.2862-.7109-.5533-.1989-1.1362-.2984-1.7487-.2984-.7687 0-1.3833.1693-1.8437.5078-.4562.3386-.6843.7681-.6843 1.2886 0 .2793.0824.5247.2471.7363.1648.2116.4583.3703.8807.4761.2703.0635.6294.1418 1.0771.2349.4477.0888.8237.1735 1.1278.2539.5998.165 1.0538.4105 1.3622.7363.3125.3259.4688.7363.4688 1.2315 0 .4147-.1013.8273-.3041 1.2377-.2027.4105-.4857.7618-.849 1.0538-.3886.3131-.8448.5586-1.3685.7363-.5196.1777-1.1341.2666-1.8438.2666z"/><path d="m61.2305 16.5483-1.7424 6.8492h-1.077l1.4002-6.8492zm-2.2429 9.4517h-1.2925l.3105-1.3394h1.2925z"/><path d="m29.2827 3.17139-.4245 1.82812h-4.3337l-.4055 1.7583h4.017l-.4182 1.82813h-4.0169l-.9314 4.03706h-2.433l2.1796-9.45161z"/><path d="m35.5869 12.623h-6.811l2.1795-9.45161h2.4456l-1.755 7.62351h4.3654z"/><path d="m45.87 12.623h-2.452l-.2154-1.9296h-3.4721l-1.1024 1.9296h-2.5407l5.6579-9.45161h2.8131zm-2.8512-3.62446-.3801-3.396-1.9451 3.396z"/><path d="m50.5902 12.7944c-.8068 0-1.527-.0698-2.1606-.2094-.6293-.1397-1.1742-.3132-1.6346-.5205l.4879-2.26616h.2661c.435.39776.9461.70666 1.5332.92676.5872.2158 1.2186.3237 1.8944.3237.6928 0 1.2017-.0931 1.527-.2793.3252-.1904.4878-.4612.4878-.81247 0-.13118-.0274-.24333-.0823-.33642-.0507-.09734-.1521-.19255-.3041-.28565-.1521-.0931-.3612-.18408-.6273-.27295-.2619-.0931-.6019-.19889-1.0201-.31738-.4604-.12695-.8743-.26449-1.2418-.4126-.3632-.14811-.6737-.32373-.9314-.52685-.2576-.20736-.454-.44646-.5892-.71729-.1309-.27083-.1964-.59456-.1964-.97119 0-.94792.4161-1.70329 1.2482-2.26611.8363-.56706 1.9789-.85059 3.4277-.85059.6969 0 1.3537.05713 1.9704.17139.6209.11425 1.1468.26871 1.5776.46338l-.4625 2.17724h-.2598c-.3294-.30469-.7645-.55859-1.3051-.76172-.5365-.20735-1.1236-.31103-1.7614-.31103-.6251 0-1.1088.09098-1.4509.27295-.3422.18196-.5132.43375-.5132.75537 0 .14811.0253.27083.076.36816s.1542.19255.3105.28565c.1351.08463.3484.17773.6399.27929.2914.09733.6336.1989 1.0264.30469 1.056.28353 1.8099.61572 2.2619.99658.4519.38086.6779.89714.6779 1.54883 0 .54592-.1225 1.02622-.3675 1.44092-.2449.4147-.5829.7511-1.0137 1.0093-.452.275-.9652.4761-1.5396.603-.5745.127-1.2249.1904-1.9514.1904z"/><path d="m67 3.17139-2.1796 9.45161h-2.4456l.9631-4.17671h-3.5798l-.963 4.17671h-2.4457l2.1796-9.45161h2.4456l-.8047 3.47851h3.5798l.8046-3.47851z"/></g><path d="m1.89185 16.4336 4.78189-14.50001h8.51346l-5.72784 10.63331h6.62154l-12.34937 16.4334 3.83595-12.5667z" fill="#f90"/><path clip-rule="evenodd" d="m4.80709.343139c.06755-.204811.25858-.343139.47388-.343139h8.51343c.1758 0 .3386.0926068.4286.243808.09.151202.0941.338709.0106.493655l-5.33057 9.895837h5.78517c.1892 0 .3621.1072.4465.2768.0845.1697.066.3725-.0478.524l-12.34945 16.4333c-.1457.1939-.40933.2549-.62519.1448s-.3216-.3597-.25076-.5918l3.6387-11.9204h-5.001127c-.16019 0-.310644-.077-.4044804-.2071-.0938363-.1301-.1196485-.2974-.0693935-.4498zm.83459.656861-4.45211 13.5h4.98514c.15823 0 .30708.0752.40119.2026s.12233.292.07606.4436l-3.007 9.851 10.04274-13.3639h-5.62111c-.17574 0-.33853-.0926-.42858-.2438s-.09408-.3387-.01062-.4936l5.33061-9.8959z" fill="#333" fill-rule="evenodd"/></svg>