<svg xmlns="http://www.w3.org/2000/svg" fill="none" height="10" viewBox="0 0 10 10" width="10"><path clip-rule="evenodd" d="m.5 0c-.276142 0-.5.223858-.5.5v3c0 .27614.223858.5.5.5h3c.27614 0 .5-.22386.5-.5v-3c0-.276142-.22386-.5-.5-.5zm.5 3v-2h2v2zm-.5 3c-.276142 0-.5.22386-.5.5v3c0 .27614.223858.5.5.5h3c.27614 0 .5-.22386.5-.5v-3c0-.27614-.22386-.5-.5-.5zm.5 3v-2h2v2zm5-8.5c0-.276142.22386-.5.5-.5h3c.27614 0 .5.223858.5.5v3c0 .27614-.22386.5-.5.5h-3c-.27614 0-.5-.22386-.5-.5zm1 .5v2h2v-2zm-.5 5c-.27614 0-.5.22386-.5.5v3c0 .27614.22386.5.5.5h3c.27614 0 .5-.22386.5-.5v-3c0-.27614-.22386-.5-.5-.5zm.5 3v-2h2v2z" fill="#6653d9" fill-rule="evenodd"/></svg>