<svg fill="none" height="29" viewBox="0 0 16 29" width="16" xmlns="http://www.w3.org/2000/svg"><g fill="#fff"><path d="m1.88233 16.4336 4.75783-14.50001h8.47064l-5.69905 10.63331h6.58825l-12.28725 16.4334 3.81665-12.5667z" opacity=".5"/><path clip-rule="evenodd" d="m4.7829.343139c.0672-.204811.25727-.343139.47149-.343139h8.47061c.1748 0 .3368.0926068.4264.243808.0896.151202.0936.338709.0106.493655l-5.30379 9.895837h5.75599c.1883 0 .3603.1072.4444.2768.084.1697.0655.3725-.0477.524l-12.28722 16.4333c-.14497.1939-.40728.2549-.62206.1448-.21477-.1101-.31997-.3597-.24949-.5918l3.62038-11.9204h-4.97595c-.159383 0-.30908-.077-.4024436-.2071-.09336391-.1301-.1190461-.2974-.0690442-.4498zm.83038.656861-4.4297 13.5h4.96005c.15743 0 .30553.0752.39917.2026s.12172.292.07568.4436l-2.99187 9.851 9.99219-13.3639h-5.59282c-.17485 0-.33682-.0926-.42642-.2438-.08959-.1512-.0936-.3387-.01056-.4936l5.3038-9.8959z" fill-rule="evenodd"/></g></svg>